<svg width="980" height="242" viewBox="0 0 980 242" fill="none" xmlns="http://www.w3.org/2000/svg">
<path d="M186.644 91.819C226.538 91.819 245.515 76.9771 245.515 45.9095C245.515 14.8419 226.672 0 186.644 0C150.057 0 130.8 10.9469 126.809 35.8441H148.678C152.254 21.8836 164.226 16.3487 186.644 16.3487C209.063 16.3487 220.888 22.7651 223.511 38.2323H168.496V53.4535H223.511C221.034 69.0539 210.027 75.4601 186.644 75.4601C163.262 75.4601 151.705 69.9251 148.409 55.2062H126.675C130.385 80.7388 149.642 91.8087 186.644 91.8087V91.819Z" fill="black"/>
<path d="M287.333 1.2666H266.697V90.5641H287.333V53.2133H353.076V90.5641H373.712V1.2666H353.076V36.3522H287.333V1.2666Z" fill="black"/>
<path d="M420.746 18.1175H494.749V1.2666H400.121V90.5641H494.749V73.7132H420.746V52.7008H480.446V35.8499H420.746V18.1175Z" fill="black"/>
<path d="M537.802 44.5253V18.1112H585.25C596.661 18.1112 601.067 21.8831 601.067 31.3131C601.067 40.743 596.661 44.515 585.25 44.515H537.802V44.5253ZM537.802 90.5578V61.3762H587.459C610.841 61.3762 622.532 51.3107 622.532 31.3131C622.532 11.3154 610.841 1.25 587.459 1.25H517.177V90.5475H537.813L537.802 90.5578Z" fill="black"/>
<path d="M641.094 90.5641H661.73V18.1175H727.472V1.2666H641.094V90.5641Z" fill="black"/>
<path d="M742.602 90.5641H784.412L832.006 1.76885V90.5641H852.642V1.2666H810.821L763.238 90.0619V1.2666H742.602V90.5641Z" fill="black"/>
<path d="M875.743 90.5641L903.665 43.6501V43.5271C884.688 43.5271 875.193 36.7314 875.193 23.0272C875.193 8.56456 886.201 1.2666 908.205 1.2666H980V90.5641H959.363V56.8521H919.335L899.248 90.5641H875.731H875.743ZM959.375 40.7596V18.1175H910.413C900.65 18.1175 896.659 21.3872 896.659 29.4335C896.659 37.4797 900.65 40.7494 910.413 40.7494H959.375V40.7596Z" fill="black"/>
<path d="M20.6362 129.55H0V218.847H20.6362V181.497H86.3783V218.847H107.014V129.55H86.3783V164.635H20.6362V129.55Z" fill="black"/>
<path d="M154.045 146.401H228.049V129.55H133.42V218.847H228.049V201.996H154.045V180.994H213.746V164.133H154.045V146.401Z" fill="black"/>
<path d="M268.211 201.996V198.727C280.182 192.064 284.027 183.126 284.991 159.859L285.54 146.401H335.466V201.996H268.211ZM237.812 241.489H257.069V218.847H351.977V241.489H371.235V201.996H356.102V129.55H266.563L265.184 158.608C264.77 166.286 264.22 174.711 263.122 181.63C261.328 191.06 258.582 197.353 253.359 202.007H237.812V241.5V241.489Z" fill="black"/>
<path d="M406.725 172.811V146.397H454.173C465.584 146.397 469.989 150.169 469.989 159.599C469.989 169.029 465.584 172.801 454.173 172.801H406.725V172.811ZM406.725 218.844V189.662H456.381C479.764 189.662 491.455 179.597 491.455 159.599C491.455 139.602 479.764 129.536 456.381 129.536H386.1V218.834H406.736L406.725 218.844Z" fill="black"/>
</svg>
